#!OML:ASF E:\Steps\Project 1\Capture day 1\Session 2\Subject.ASF
:FULLY-SPECIFIED
:DEGREES
81
root -1.23473 19.6229 20.8003 -154.144 -1.53893 179.961
lowerback -24.256 -2.97179 -6.3945
upperback 1.06821 -2.32191 0.442786
thorax 15.2342 -1.65195 3.3098
lowerneck -1.50874 -9.19336 -1.84619
upperneck 19.9838 -11.8635 3.29026
head 6.64863 -5.16761 0.653631
rclavicle -2.5842e-015 -5.96354e-015
rhumerus -38.475 -16.4901 -76.0685
rradius 40.5783
rwrist -8.10031
rhand -3.86131 -62.4876
rfingers 7.12502
rthumb 21.8871 -268.73
lclavicle -2.5842e-015 -5.96354e-015
lhumerus -33.0885 0.635307 80.2899
lradius 30.4965
lwrist 6.58772
lhand -22.8809 -9.41018
lfingers 7.12502
lthumb 3.55807 20.5399
rfemur -28.4467 7.25482 21.0237
rtibia 14.788
rfoot -21.224 -2.31968
rtoes -13.2518
lfemur -29.5234 -9.49211 -21.048
ltibia 18.015
lfoot -12.1512 2.04047
ltoes -24.8031
82
root -1.23499 19.6184 20.8007 -154.231 -1.49543 179.998
lowerback -23.8949 -2.96191 -6.46192
upperback 0.961578 -2.3236 0.444644
thorax 14.9008 -1.64988 3.36048
lowerneck -1.62998 -9.23199 -1.84349
upperneck 20.4253 -11.8756 3.17831
head 6.80545 -5.1532 0.605032
rclavicle -2.98177e-015 -7.15625e-015
rhumerus -38.6582 -16.0889 -76.1576
rradius 40.9884
rwrist -8.59672
rhand -3.13748 -64.5659
rfingers 7.12502
rthumb 22.582 -266.735
lclavicle -2.98177e-015 -7.15625e-015
lhumerus -33.3164 0.799891 80.0941
lradius 30.4587
lwrist 6.38862
lhand -22.9748 -9.73149
lfingers 7.12502
lthumb 3.46744 20.2201
rfemur -28.6944 7.11962 21.1106
rtibia 15.4753
rfoot -21.4729 -2.0126
rtoes -12.8437
lfemur -29.7264 -9.63626 -20.9977
ltibia 18.6455
lfoot -12.5401 2.18636
ltoes -24.1089
83
root -1.2361 19.6124 20.8008 -154.258 -1.45253 180.074
lowerback -23.6791 -2.93876 -6.48476
upperback 0.874494 -2.31026 0.451387
thorax 14.6717 -1.64044 3.39287
lowerneck -1.69649 -9.21868 -1.95367
upperneck 20.6591 -11.8404 3.19598
head 6.89985 -5.1276 0.623265
rclavicle -2.22639e-014 1.23246e-014
rhumerus -38.7168 -15.6834 -76.2471
rradius 41.2798
rwrist -9.10201
rhand -3.08738 -65.2884
rfingers 7.12502
rthumb 22.6301 -266.018
lclavicle -2.22639e-014 1.23246e-014
lhumerus -33.5161 0.968334 79.8992
lradius 30.5078
lwrist 6.18848
lhand -23.0243 -9.98353
lfingers 7.12502
lthumb 3.41966 19.9688
rfemur -29.0185 7.03437 21.2298
rtibia 16.2436
rfoot -21.7712 -1.7465
rtoes -11.8602
lfemur -29.9752 -9.65389 -20.9328
ltibia 19.2343
lfoot -12.723 2.08221
ltoes -22.4376
84
root -1.23557 19.6072 20.798 -154.369 -1.395 180.192
lowerback -23.5399 -2.89697 -6.4814
upperback 0.886679 -2.26031 0.431007
thorax 14.5994 -1.61426 3.38902
lowerneck -1.61076 -9.18343 -1.97044
upperneck 20.6382 -11.8114 3.349
head 6.88797 -5.10171 0.680679
rclavicle 1.82882e-014 -2.38542e-015
rhumerus -38.6989 -15.5876 -76.3237
rradius 41.5286
rwrist -9.15262
rhand -3.26897 -65.3869
rfingers 7.12502
rthumb 22.4558 -265.899
lclavicle 1.82882e-014 -2.38542e-015
lhumerus -33.7106 0.914386 79.6977
lradius 30.8073
lwrist 6.21731
lhand -23.0577 -9.64209
lfingers 7.12502
lthumb 3.38735 20.3107
rfemur -29.1888 6.93718 21.4231
rtibia 16.8787
rfoot -22.0731 -1.53169
rtoes -11.5695
lfemur -30.1004 -9.75296 -20.7891
ltibia 19.7629
lfoot -12.9805 2.04679
ltoes -20.5615
85
root -1.23214 19.5988 20.7974 -154.463 -1.34046 180.311
lowerback -23.4697 -2.87101 -6.47123
upperback 0.954075 -2.22065 0.390888
thorax 14.633 -1.59367 3.35215
lowerneck -1.61278 -9.15268 -1.91111
upperneck 20.6137 -11.8 3.48844
head 6.88496 -5.08125 0.716428
rclavicle 1.66979e-014 7.95139e-015
rhumerus -38.567 -15.6536 -76.4513
rradius 41.8197
rwrist -9.11148
rhand -3.29408 -65.661
rfingers 7.12502
rthumb 22.4317 -265.622
lclavicle 1.66979e-014 7.95139e-015
lhumerus -33.7775 0.73013 79.4588
lradius 31.0235
lwrist 6.30823
lhand -23.1485 -9.34773
lfingers 7.12502
lthumb 3.29969 20.6065
rfemur -29.4344 6.99904 21.595
rtibia 17.5616
rfoot -22.3857 -1.56017
rtoes -12.053
lfemur -30.2588 -9.90841 -20.6026
ltibia 20.2545
lfoot -13.2714 2.15676
ltoes -19.5846
86
root -1.22997 19.5911 20.7977 -154.525 -1.31964 180.389
lowerback -23.2742 -2.8625 -6.5143
upperback 0.89671 -2.21523 0.384536
thorax 14.4529 -1.58961 3.37691
lowerneck -1.48755 -9.12727 -1.92109
upperneck 20.4512 -11.7724 3.51822
head 6.81214 -5.07629 0.737722
rclavicle 1.39149e-014 1.35174e-014
rhumerus -38.6923 -15.6374 -76.4627
rradius 42.2483
rwrist -9.24779
rhand -3.26521 -65.9849
rfingers 7.12502
rthumb 22.4594 -265.301
lclavicle 1.39149e-014 1.35174e-014
lhumerus -33.9197 0.67207 79.2481
lradius 31.0057
lwrist 6.18013
lhand -23.2791 -9.76922
lfingers 7.12502
lthumb 3.17354 20.1869
rfemur -29.7705 7.01331 21.7048
rtibia 18.3586
rfoot -22.7535 -1.53671
rtoes -11.9393
lfemur -30.4829 -10.08 -20.4765
ltibia 20.7941
lfoot -13.5303 2.3239
ltoes -19.9189
87
root -1.22902 19.5839 20.796 -154.566 -1.3668 180.458
lowerback -23.0823 -2.8749 -6.52381
upperback 0.819517 -2.24898 0.37786
thorax 14.2546 -1.60032 3.36818
lowerneck -1.41126 -9.15634 -1.94416
upperneck 20.4741 -11.8093 3.54342
head 6.81066 -5.09178 0.750036
rclavicle 3.51849e-014 1.27222e-014
rhumerus -38.8736 -15.5072 -76.4977
rradius 42.7334
rwrist -9.50868
rhand -3.36025 -65.8676
rfingers 7.12502
rthumb 22.3682 -265.407
lclavicle 3.51849e-014 1.27222e-014
lhumerus -34.0679 0.819394 78.9818
lradius 31.0152
lwrist 5.93662
lhand -23.2902 -10.2237
lfingers 7.12502
lthumb 3.16281 19.7326
rfemur -30.1085 6.8087 21.8556
rtibia 19.1111
rfoot -23.0019 -1.38254
rtoes -12.2286
lfemur -30.6992 -10.2741 -20.3492
ltibia 21.3123
lfoot -13.8217 2.44811
ltoes -19.5608
88
root -1.22658 19.576 20.7927 -154.711 -1.4099 180.576
lowerback -23.4222 -2.94769 -6.65015
upperback 1.16446 -2.26151 0.465256
thorax 14.8763 -1.63395 3.52475
lowerneck -1.54392 -9.24608 -1.79588
upperneck 20.2919 -11.9497 3.41282
head 6.76152 -5.17697 0.671688
rclavicle 3.18055e-015 7.15625e-015
rhumerus -38.2569 -15.3103 -76.6341
rradius 43.078
rwrist -9.73487
rhand -3.292 -65.2622
rfingers 7.12502
rthumb 22.4337 -266.021
lclavicle 3.18055e-015 7.15625e-015
lhumerus -33.5943 1.05483 78.8444
lradius 31.0517
lwrist 5.81349
lhand -23.2043 -10.4934
lfingers 7.12502
lthumb 3.24584 19.4616
rfemur -30.317 6.69659 22.065
rtibia 19.8262
rfoot -23.108 -1.32149
rtoes -12.856
lfemur -30.7497 -10.4269 -20.1766
ltibia 21.7542
lfoot -14.1366 2.56728
ltoes -18.9528
89
root -1.22173 19.567 20.789 -154.852 -1.37255 180.684
lowerback -23.0169 -2.95316 -6.73793
upperback 1.02854 -2.28813 0.487734
thorax 14.4877 -1.64327 3.60287
lowerneck -1.66451 -9.34202 -1.66319
upperneck 20.8724 -12.0064 3.09895
head 6.94409 -5.18128 0.534917
rclavicle 1.27222e-014 1.03368e-014
rhumerus -38.4539 -14.9078 -76.6721
rradius 43.5972
rwrist -9.93666
rhand -2.9486 -66.0246
rfingers 7.12502
rthumb 22.7633 -265.298
lclavicle 1.27222e-014 1.03368e-014
lhumerus -34.025 1.07546 78.5526
lradius 31.3422
lwrist 5.85326
lhand -22.9287 -10.7581
lfingers 7.12502
lthumb 3.51191 19.1927
rfemur -30.6083 6.71966 22.2422
rtibia 20.7413
rfoot -23.3804 -1.33644
rtoes -12.8454
lfemur -30.8057 -10.4926 -20.0414
ltibia 22.2078
lfoot -14.4459 2.62911
ltoes -17.8261
90
root -1.21735 19.5568 20.7859 -154.928 -1.33362 180.703
lowerback -22.8291 -2.93504 -6.86571
upperback 0.976504 -2.24372 0.456269
thorax 14.3163 -1.62687 3.66066
lowerneck -1.70021 -9.36113 -1.65852
upperneck 20.9712 -12.0214 3.05196
head 6.97958 -5.18568 0.515111
rclavicle -2.78299e-015 -1.51076e-014
rhumerus -38.5854 -14.8812 -76.6492
rradius 44.122
rwrist -10.186
rhand -3.08389 -66.0013
rfingers 7.12502
rthumb 22.6335 -265.306
lclavicle -2.78299e-015 -1.51076e-014
lhumerus -34.274 0.924056 78.328
lradius 31.6469
lwrist 5.91929
lhand -22.8775 -10.7276
lfingers 7.12502
lthumb 3.56144 19.2223
rfemur -30.9848 6.52793 22.3705
rtibia 21.7161
rfoot -23.6097 -1.20843
rtoes -12.3227
lfemur -30.9103 -10.5514 -20.0222
ltibia 22.6332
lfoot -14.6229 2.67261
ltoes -16.9875
